<svg viewBox="0 0 1033.17 1331.17" xmlns="http://www.w3.org/2000/svg"><path d="m883.9 741.25c-5.7-7.88-14.15-11.65-24.19-9.29-11.37 2.67-22.79 5.46-30.35 15.64-.11.15-.6.02-1.62.02-1.45-7.68-3.35-15.44-4.33-23.3-3.66-29.4-6.69-58.89-10.69-88.25-1.24-9.1-3.46-18.56-7.6-26.64-5.76-11.26-13.8-21.35-20.74-32.02-1.58-2.43-3.29-5.07-3.82-7.83-1.69-8.82-2.51-17.81-4.29-26.61-4.21-20.8-8.78-41.54-13.3-62.72 5.8-2.75 8.81-7.42 6.03-14.3-9.36-23.21-18.27-46.63-28.46-69.47-6.43-14.41-16.89-26.13-30.06-35.25-11.93-8.26-25.25-13.66-38.99-17.34-23.27-6.24-46.87-11.26-70.41-16.45-4.59-1.01-7.26-2.58-8.3-7.45-5.69-26.65-11.68-53.24-17.38-79.9-.29-1.34.82-3.23 1.73-4.54 3.48-4.98 7.84-9.47 10.61-14.8 5.45-10.46 3.78-33.32-7.39-39.99-.97-.58-1.38-2.75-1.38-4.18-.02-10.27.29-20.55.19-30.82-.1-10.14-5.89-18.18-15.35-21.47-2.45-.85-3.46-2.02-4.34-4.56-3.41-9.82-7.73-19.03-20.43-19.19-1.04-.01-2.15-.86-3.09-1.51-2.72-1.9-5.39-3.87-8.05-5.86-3.03-2.27-4.97-1.82-5.41 2.82-2.88-1.33-5.3-2.75-7.91-3.58-2.6-.83-5.47-1.69-8.07-1.36-2.05.27-3.86 2.33-5.78 3.6.18.44.35.88.53 1.32-7.42-1.36-14.81-2.89-22.27-4.04-6.51-1-13.1-2.16-19.64-2.07-2.71.04-5.37 3.16-8.05 4.88 1.47 1.86 2.95 3.71 4.41 5.57.35.45.66.94 1.31 1.86-2.08-.17-3.56-.44-5.03-.37-7.95.36-15.91.59-23.82 1.38-1.57.16-3.66 2.33-4.11 3.97-.31 1.13 1.63 3.07 2.85 4.37.81.87 2.13 1.25 4.53 2.57-3.29.26-5.19.36-7.07.57-4.93.54-9.86 1.1-14.78 1.72-4.47.57-4.86 3.31-3.47 6.86.35.9.86 1.75 1.61 3.25-3.96.97-7.64 1.74-11.23 2.83-1.39.42-3.46 1.47-3.58 2.45-.16 1.24 1.03 3.15 2.2 3.95 2.81 1.92 5.94 3.37 9.19 5.13-2.51 1.27-4.78 2.41-8.33 4.2 4.58 3.02 8.07 5.33 10.6 7.01-.14 10.74-.54 21-.26 31.25.1 3.71 1.58 7.46 2.95 10.99.42 1.08 2.7 2.19 3.91 1.98 1.17-.2 2.41-1.93 2.95-3.26.53-1.3.14-2.96.29-4.44 1.09-10.91 1.87-21.87 3.43-32.72 1.03-7.17 3.39-8.07 10.74-7.32 3.33.34 7.08.06 10.14-1.17 6.44-2.6 12.49-6.16 18.84-9.01 2.48-1.11 5.33-1.75 8.05-1.92 3.25-.2 6.71 1.07 9.77.38 5.3-1.2 10.31-3.67 15.57-5.13 4.31-1.2 8.8-1.7 13.99-2.66-1.28 2.7-2.24 4.45-2.93 6.29-.53 1.4-1.49 3.64-.92 4.25 1.03 1.1 3.03 1.51 4.69 1.74 1.17.16 2.46-.45 4.17-.82 0 8.1.07 15.88-.03 23.65-.05 4.05 1.07 7.37 4.16 10.22 2.91 2.68 5.9 5.53 7.92 8.88 6.98 11.57 11.45 24.23 10.94 37.78-.29 7.69 1.18 16.61-6.65 22.39-.41.31-.2 1.36-.56 1.85-.75 1.03-1.74 1.89-2.54 2.89-.65.81-1.2 1.7-1.75 2.58-1.02 1.63-1.98 3.3-3.01 4.93-.75 1.18-1.57 2.32-2.36 3.48-1.3-.85-2.65-1.73-3.83-2.49-2.16 2.71-4.13 5.19-6.42 8.06-1.33-2.55-2.67-4.45-3.38-6.57-3.84-11.42-8.99-13.7-20.23-9.26-10.03 3.96-20.11 7.81-30.32 11.27-7.09 2.41-15.05 2.5-20.83 9.3-4.05-13.42-7.33-26.06-6.2-39.7 6.75-.7 12.03-4 14.32-10.12 2.01-5.36 2.97-11.22 3.54-16.94.19-1.9-1.93-5.4-3.61-5.84-3.27-.86-4 2.32-4.63 5.1-1.14 5.01-2.38 10.02-4.06 14.85-.47 1.35-2.58 2.72-4.08 2.89-.81.09-2.39-2.19-2.77-3.63-.98-3.69-1.44-7.5-2.17-11.26-.58-2.95-2.65-4.69-5.35-3.74-1.73.61-3.04 2.85-4.12 4.62-.5.83-.17 2.31.07 3.43 2.16 10.13 2.56 20.35 1.78 30.65-.04.49.02 1 .06 1.5 1.9 23.74 9.05 45.92 20.56 66.63 7.51 13.51 21.07 19.05 36.07 15.89 3.17-.67 6.41-.98 9.92-1.5.28 2.85.4 5.15.77 7.41.86 5.37-1.22 8.5-6.38 10.59-13.1 5.3-26.02 11.06-38.99 16.68-12.76 5.53-25.36 11.7-33.44 23.47-7.11 10.37-13.23 21.47-19.17 32.59-7.57 14.18-14.87 28.52-21.56 43.12-3.58 7.8-5.55 16.33-8.39 24.48-2.38 6.83-4.97 13.59-7.49 20.44-12.77-7.9-21.69-16.57-24.93-24.27 12.13-2.9 19.83-11.23 26.57-21.09 7.58-11.1 13.24-23.09 17.38-35.77 3.24-9.9 4.76-20.13 2.19-30.49-1.55-6.25-3.96-12.21-10.21-15.22-5.24-2.53-10.76-4.44-16.1-6.78-7.92-3.47-15.15-2.15-21.26 3.62-5.04 4.76-9.47 10.16-14.96 16.13-3.92-5.24-6.66-9.44-9.97-13.13-2.39-2.66-5.59-4.59-8.36-6.92-1.54-1.3-3.38-2.51-4.34-4.19-4.05-7.09-9.35-11.55-18.14-10.49-3.54.43-8.9-5.41-8.78-9.07.52-15.81-5.45-24.56-20.48-29.7-3.76-1.28-7.65-2.25-11.53-3.12-20.47-4.63-37.82.84-50.65 17.46-13.18 17.06-21.26 36.48-21.82 58.33-.24 9.37 2.79 17.87 11.71 22.77 6.26 3.44 12.64 6.77 19.24 9.47 3.07 1.26 6.97 1.75 10.19 1.08 5.07-1.04 9.88-3.35 13.76-4.75 5.67 5.61 11.33 10.91 16.62 16.55 2.15 2.29 4.21 5.11 5.12 8.06 3.89 12.55 7.07 25.32 11.01 37.85 7.98 25.37 15.5 50.91 27.49 74.84 11.69 23.33 26.09 44.54 46.79 60.81 8.34 6.56 17.43 12.36 28.86 8.22 6.4-2.32 12.89-4.79 18.7-8.26 23.87-14.24 45.41-31.46 63.91-52.3 7.89-8.89 15.33-18.18 23.21-27.56 3.52 10.15 6.6 20.49 5.98 31.15-1.1 19.09-2.92 38.15-5.05 57.16-.99 8.86-2.56 17.85-5.37 26.27-3.83 11.48-9 22.52-13.81 33.66-3.21 7.42-3.35 14.08 2.93 20.13.99.96 1.33 3.57.8 4.96-2.79 7.29-6.13 14.36-8.98 21.63-8.68 22.19-15.18 45.05-20.73 68.21-4.11 17.14-8.74 34.16-13 51.28-1.79 7.22-.21 10.48 6.09 14.01 2.32 1.3 4.59 2.72 6.96 3.93 2.52 1.29 3.28 2.82 2.86 5.91-2.97 21.92-2.34 43.75 1.55 65.58 1.51 8.5 4.56 16.94 1.29 25.99-8.69 24.07-11.84 48.98-9.86 74.51 1.27 16.42 2.63 32.83 3.92 49.24 1.86 23.55 3.67 47.11 5.55 70.67.27 3.42-.25 5.7-4.08 7.23-3.25 1.3-5.93 4.16-8.66 6.56-4.85 4.27-9.07 9.42-14.38 12.98-16.69 11.18-33.81 21.74-50.68 32.66-7.98 5.17-14.05 11.9-17.95 20.85-3.1 7.13-.1 21.81 8.52 25.81 6.74 3.12 13.7 6.55 20.91 7.7 28.79 4.6 56.99.47 84.78-7.44 5.58-1.59 11.13-3.38 16.82-4.4 12.73-2.28 25.64-3.63 38.27-6.3 10.83-2.29 13.42-7.19 10.29-17.88-3.83-13.09-7.48-26.13-8.7-39.84-.5-5.57-2.49-11.46-5.43-16.19-1.63-2.63-2.96-4.77-2.96-7.77 0-8.99.13-17.98 0-26.96-.37-25.3 3.69-49.5 15.09-72.51 7.77-15.66 11.32-32.63 10.14-50.37-1.05-15.76-5.33-30.75-9.9-45.72-.7-2.29-.54-5.23.23-7.54 9.03-27.1 18.23-54.14 27.46-81.17.36-1.04 1.42-2.55 2.25-2.61 8.62-.63 11.47-6.77 13.72-13.71 2.3-7.08 4.79-14.1 7.49-21.97 4.16 13.66 7.78 26.27 11.88 38.72 2.84 8.63 6.41 10.91 15.58 11.05 6.61.1 13.22.02 18.15.02 8.96 22.49 17.28 44.21 26.31 65.63 4.38 10.38 10.17 20.16 15.2 30.27 3.21 6.44 5.04 12.85 3.96 20.51-2.92 20.78-.77 41.09 8.16 60.46 5.29 11.48 10.63 23 14.86 34.89 8.34 23.41 13.59 47.63 16.86 72.26.39 2.95.93 6.06.41 8.91-3.43 18.95-7.38 37.81-10.65 56.79-1.55 9 .46 11.95 8.57 16.39 2.04 1.12 4.02 2.42 6.18 3.27 6.05 2.38 10.06 6.5 12.76 12.49 3.15 7 8.98 10.83 16.7 11.83 17.57 2.29 35.17 3.13 52.82 1.25 11.46-1.23 22.69-3.43 33.09-8.79 7.02-3.62 11.48-9.01 11.6-17.16.17-10.71-3.89-19.83-11.43-27.27-10.29-10.16-21.37-19.59-31.04-30.3-7.07-7.83-11.93-17.61-18.74-25.72-3.41-4.07-4.27-8.2-5.16-12.92-6.13-32.65-6.32-65.44-3.97-98.49 1.46-20.41 1.06-41.15-6.04-60.68-5.66-15.57-12.81-30.63-19.91-45.64-4.19-8.87-7.05-17.64-6.95-27.65.16-15.96-.44-31.94-1.11-47.9-.44-10.46-.75-10.45 8.59-14.33 8.31-3.46 9.88-5.65 8.19-14.5-4.23-22.21-8.81-44.35-13.29-66.51-5.61-27.7-11.27-55.38-17.07-83.88 4.54-1.94 6.5-6.15 5.54-11.76-.95-5.57-2.18-11.1-3.03-16.69-2.88-18.88-6.9-37.7-8.11-56.69-1.21-19.04.29-38.26.89-57.39.23-7.32 1.24-14.61 1.97-22.72 1.05 1.14 1.51 1.43 1.65 1.83 7.64 21.46 17.72 41.61 31.64 59.75.77 1 .91 2.64.98 4 .42 7.43.14 14.96 1.2 22.29 2.43 16.77 11.17 31.22 18.12 46.29 11.16 24.17 22.26 48.34 29.42 74.1 2.2 7.91-3.27 16.45-11.51 17.84-19.72 3.33-33.86 15.23-33.99 38.18-.13 22.85 8 42.94 20.72 61.31 5.05 7.29 12.07 12.74 21.22 14.76 8.43 1.86 15.67-1.9 23.12-4.59 10.1-3.65 15.2-11.41 16.83-21.67.52-3.23.49-6.54.62-8.37 9.36-4.63 17.97-8.32 25.98-13.04 6-3.54 8.97-4.22 14.52-.58 6.01 3.95 12.49 6 19.85 5.06 11.01-1.41 20.7-6.07 29.94-11.82 5.36-3.34 8.78-8.33 9.44-14.61 2.95-28.05-4.62-53.41-20.99-76.04zm-347.19-454.6c10.63-11.73 15.01-25.68 13.98-41.28-.81-12.26-2.1-24.5-3.28-36.73-.71-7.34 8.8-20.7 16.01-22.26 7.58-1.65 13.89 2.57 15.83 12.07 2.23 10.95.4 21.35-8.7 29.06-2.31 1.96-5.7 2.58-8.31 4.26-1.52.98-3.16 2.72-3.46 4.35-.21 1.13 1.81 2.65 2.76 4.03.83 1.21 2.01 2.39 2.29 3.75 5.11 24.22 10.07 48.47 15.18 72.69.92 4.38 2.46 8.63 3.54 12.97 1.19 4.78 3.43 8.17 8.92 8.55 2.08.14 4.1 1.15 6.56 1.89-1.34 8.51-6.24 14.9-12.51 20.18-25.27 21.28-66.68 21.44-92.09.4-3.13-2.59-5.66-5.92-8.94-9.41 1.7-1.12 2.32-1.81 3.05-1.97 7.9-1.72 8.74-7.67 8.55-14.19-.12-4.16-.02-8.39-.78-12.45-.7-3.75.79-5.32 3.82-6.87 14.32-7.32 26.78-17.11 37.57-29.02zm-56.74 3.32c-1.09-.96-1.37-2.86-1.95-4.37-1.05-2.76-2.06-5.55-3.08-8.32-.46.11-.92.21-1.38.32-.73 1.42-1.45 2.84-2.17 4.25-6.82-2.79-10.35-.48-11.36 6.61-.48 3.37-2.17 6.58-3.32 9.86-.53-.08-1.05-.16-1.58-.24-1.15-3.18-1.36-7.91-6.64-4.36-.24.16-1.2-.18-1.31-.47-1.73-4.88-3.57-9.73-4.82-14.74-.18-.72 2.5-2.97 4.02-3.16 14.41-1.76 27.78-6.5 40.44-13.4 4.51-2.46 6.95-1.8 8.17 3.21 2.71 11.17 5.73 13.46-1.09 27.1-1.08-1.27-2.05-2.4-3.6-4.23-1.84 1.87-3.54 3.6-4.85 4.93-1.71-.88-3.91-1.58-5.49-2.98zm-152.25 91.62c6.04-5.64 9.52-5.26 16.51.34-25.44 19.62-35.94 46.69-39.24 77.8-7.52-1.69-9.59-3.94-9.2-11.57 1.34-26.61 12.67-48.59 31.94-66.58zm-146.77 21.35c-8.08-3.17-9.06-4.91-7.82-13.53 2.04-14.12 6.78-27.22 13.48-39.87 5.92-11.19 14.9-19.52 23.7-28 1.92-1.85 6.73-.71 10.33-.25-24.75 21.86-38.15 48.59-39.69 81.65zm259.53 117.42c-7.69 9.99-14.78 20.52-23.16 29.9-17.94 20.1-38.85 36.83-61.75 51.03-2.4 1.49-4.96 2.72-7.47 4.03-12.13 6.33-16.03 5.9-26.61-2.8-16.77-13.77-28.48-31.42-38.9-50.15-13.28-23.88-21.55-49.68-29.41-75.65-4.38-14.48-8.49-29.04-12.9-43.51-.65-2.12-1.99-4.24-3.55-5.84-3.71-3.81-7.53-7.58-11.69-10.88-11.33-8.98-12.6-27.66-6.77-40.03 4.83-10.25 11.43-18.82 23.03-22.02 4.91-1.35 7.34-.58 11.19 3.15-5.01 4.06-10.24 7.87-14.9 12.29-1.52 1.44-1.53 4.46-2.23 6.76 2.47-.04 5.41.76 7.34-.28 7-3.79 13.53-8.46 20.51-12.3 5.62-3.09 8.45-1.71 11.03 4.11-6.32 4.32-12.77 8.38-18.74 13.05-1.79 1.4-3.73 5.31-3 6.71 1.81 3.46 5.03 1.6 7.72.05 5.91-3.39 11.77-6.88 17.83-9.97 4.73-2.41 7.54-1.23 10.82 4.08-3.39 2.23-6.88 4.37-10.2 6.76-2.55 1.84-5.25 3.68-7.16 6.09-1.19 1.5-1.01 4.07-1.45 6.16 2.3.05 5.04.92 6.83-.01 4.99-2.6 9.48-6.15 14.41-8.88 1.51-.84 5.02-.97 5.49-.18 1.07 1.8 1.84 5.06.89 6.53-2.46 3.82-5.76 7.15-9.02 10.38-5.78 5.72-11.9 11.1-17.64 16.86-3.08 3.09-2.47 6.19 1.15 8.76 6.02 4.26 10.46 8.93 9.89 17.45-.57 8.56 4.89 14.46 12.48 17.55 7.25 2.95 13.03 6.56 17.11 13.88 5.86 10.53 14.48 18.96 24.73 25.63 9.7 6.31 17.07 14.78 21.91 25.37.69 1.51 1.29 3.3 2.48 4.28 1.83 1.52 4.15 2.45 6.26 3.63.87-2.34 3.05-5.15 2.4-6.93-2.8-7.71-6.53-15.09-9.7-22.68-.78-1.87-1.57-4.4-.95-6.1 2.92-7.94 6.02-15.85 9.68-23.48 3.59-7.48 7.41-9.2 15.48-6.83 15.31 4.49 29.56 11.31 41.7 21.82 5.25 4.54 9.76 9.95 14.7 14.86 2.54 2.52 2.03 4.85.11 7.35zm39.46 711.64c2.2 7.82 1.57 9.27-6.32 11.1-4.37 1.01-8.8 2.06-13.25 2.43-14.87 1.24-28.98 5.56-43.31 9.39-21.05 5.63-42.63 9.84-64.55 6.48-7.5-1.15-14.77-4.79-21.71-8.2-5.4-2.65-5.5-12.02.19-17.46 5.82-5.57 12.65-10.1 19.1-15.01 1.04-.79 2.57-.99 3.52-1.86 7.45-6.77 14.6-3.71 21.78.48 1.87 1.09 3.78 2.14 5.76 3 3.2 1.39 6.43 1.45 8.37-1.89 1.97-3.41-.48-5.73-3.02-7.43-3.4-2.28-7.04-4.21-10.58-6.29l.11-1.4c1.52-.1 3.18-.66 4.53-.22 3.94 1.27 7.82 2.8 11.6 4.49 3.27 1.46 6.49 1.77 8.41-1.49 2.07-3.52-.93-5.45-3.54-7.04-2.54-1.54-5.2-2.9-7.8-4.34v-1.84c1.93 0 4.04-.52 5.74.1 4.35 1.59 8.49 3.75 12.76 5.56 1.66.7 3.58 1.77 5.13 1.46 1.81-.37 4.06-1.75 4.78-3.31.57-1.24-.32-4.18-1.51-5.03-4.41-3.14-9.21-5.73-13.88-8.53 4.8-8.66 10.6-11.5 19.24-9.47 4.75 1.12 7.65 3.85 8.44 8.68.43 2.62.89 5.25 1.07 7.89.5 7.59 4.24 11.48 11.93 11.92 7.21.41 13.89-1.26 19.82-5.54 2.68-1.93 5.38-3.82 8.72-6.18 1.18 6.65 2.12 12.98 3.47 19.23 1.47 6.81 3.14 13.59 5.03 20.3zm-58.2-101.9c14.05.54 27.8 1.07 41.85 1.61 1.57 7.47 1.18 8.88-7.22 9.26-10.19.46-20.46-.4-30.67-1.05-1.28-.08-3.06-2.11-3.49-3.56-.67-2.29-.39-4.87-.46-6.27zm41.27 51.53c-.57 3.66-6.93 7.13-11.32 9.3-6.07 3-7.26 1.81-7.78-4.86-.72-9.36-4.78-16.45-13.85-20.09-2.14-.86-4.22-1.87-6.54-2.91-.2-4.38-.4-8.79-.54-12h40.58c0 10.12 1.03 20.54-.54 30.55zm35.95-271.14c-6.74 18.78-13.94 37.39-20.37 56.27-1.27 3.73-.86 8.68.43 12.51 6.67 19.95 11.8 40.25 7.76 61.24-2.33 12.12-6.92 23.94-11.56 35.46-4.96 12.32-8.49 24.86-9.85 38.01-.26 2.49-.82 3.89-3.46 4.51-13.15 3.12-26.13 1.66-39.03-1.36-.85-.2-1.85-1.81-1.94-2.84-3.26-35.28-8.49-70.53-5.49-106.06 1.06-12.5 4.1-24.94 7.34-37.11 3.22-12.11 3.46-23.94.53-35.96-4.97-20.35-4.46-40.82-2.05-61.27 14.76 3.25 28.59 7.09 42.68 9.16 13.93 2.04 28.12 2.29 42.86 3.37-2.51 7.76-4.94 16-7.84 24.07zm234.48 283.21c-3.37.96-6.77 1.59-9.88 2.89-5.19 2.18-10.47 4.37-15.13 7.44-1.94 1.28-3.88 5.42-3.17 7.24 1.44 3.7 5.17 2.27 8.26 1.2 6.25-2.18 12.51-4.36 18.84-6.3 2.68-.82 5.68-1.78 8.27-1.28 2.05.39 3.69 2.9 5.7 4.63-7.97 2.28-15.14 3.85-21.9 6.45-4.4 1.69-8.55 4.5-12.13 7.6-1.39 1.2-.87 4.59-1.23 6.99 2.29.19 5.19 1.38 6.77.41 9.73-6 20.48-8.41 31.53-10.21 3.58-.58 6.08.02 7.35 2.82-8.62 2.53-17.4 4.81-25.94 7.77-3.32 1.15-6.49 3.45-9 5.96-1.21 1.21-1.72 5.05-.78 6.03 1.31 1.38 4.75 2.29 6.42 1.53 11.16-5.1 22.67-8.03 34.92-9.56 5.79-.72 8.87.77 12.23 4.27 5.24 5.45 10.48 10.9 15.72 16.35-.19.67-.38 1.34-.57 2.01-5.28 2.17-10.45 4.63-15.85 6.45-14.42 4.85-29.36 5.43-44.41 4.9-1.32-.05-2.74-.24-3.95.15-.95.31-2.13 1.29-2.33 2.18-.19.84.51 2.3 1.27 2.84 1.45 1.03 3.16 1.87 4.88 2.3 15.28 3.78 30.44 2.11 45.4-1.69 5.68-1.44 11.08-4 17.81-6.5-1.51 2.19-2.25 4.55-3.73 5.19-6.19 2.68-12.42 5.68-18.95 7.05-18.77 3.93-37.74 2.81-56.66.79-5.4-.58-9.44-2.7-10.89-8.52-1.83-7.33-7.75-10.73-13.83-14.12-13.03-7.27-13.44-4.37-10.22-21.39 1.94-10.26 3.26-20.64 4.96-31.62 1.27 1.07 2.06 1.89 2.99 2.51 5.73 3.77 11.69 1.7 12.94-5.05 1.91-10.27 8.34-15.41 17.94-17.55 8.83-1.97 11.51-.74 16.38 7.87zm-7-20.98c-15.24.85-29.31 2.88-37.63 17.74-1.43-10.13-2.85-20.25-4.32-30.63 13.77 1.32 26.46-.05 39.19-5.43.93 6.18 1.82 12.12 2.75 18.32zm-12.07-25.98c-5.13 1.32-10.37 2.49-15.63 3.01-5.23.51-10.54.11-16.19.11-.67-3.22-1.36-6.57-2.23-10.82 7.4 0 14.24.62 20.93-.17 6.67-.79 13.17-3 19.75-4.58 2.58 8.57 1.8 10.29-6.62 12.46zm4.15-119.95c2.27 14.53 2.83 29.43 2.97 44.17.15 15.79-1 31.59-1.82 47.38-.08 1.52-1.53 3.63-2.92 4.32-11.91 5.89-24.67 6.31-37.58 5.14-.96-.09-2.26-1.29-2.64-2.26-8.36-21.87-16.57-43.79-24.9-65.67-4.94-12.98-5.37-26.48-3.62-39.9 1.53-11.71-.23-22.11-5.84-32.56-13.94-25.96-25.74-52.93-35.64-80.71-.89-2.49-1.55-5.06-2.54-8.31 9.3-.62 18.23-.83 27.06-1.89 11.04-1.33 22.02-3.21 32.97-5.14 10.32-1.83 15.05-8.66 15.86-18.74.33-4.07.91-8.12 1.53-13.54 7.78 14.65 6.29 29.27 7.18 43.41.72 11.44.75 23 0 34.44-.9 13.55 2.96 25.59 9.17 37.22 8.95 16.76 17.8 33.77 20.75 52.67zm-26.9-230.69c3.93 18.21 8.11 36.36 12.14 54.54.57 2.59.99 5.22 1.41 7.84 1.05 6.56.78 6.93-6.56 8.87-1.98-5.31-3.95-10.7-6.01-16.05-2.51-6.52-5.15-12.99-7.64-19.51-1.38-3.63-3.78-6.16-7.73-5.8-4.49.41-5.67 3.98-6.09 7.92-1.35 12.72-2.91 25.43-4.05 38.17-.41 4.59-2.95 6.57-6.88 7.19-12.46 1.95-24.9 4.4-37.45 5.39-15.23 1.19-30.57 1.09-45.86 1.55-8.33.25-8.78.38-11.15-7.87-4.26-14.84-7.42-30.01-11.98-44.76-4.26-13.79-9.52-27.3-14.89-40.71-.77-1.91-4.83-3.79-7.12-3.53-3.95.46-4.25 4.3-3.34 7.55 2.28 8.16 4.87 16.23 7.23 24.37.39 1.36.67 2.98.31 4.29-3.7 13.46-7.55 26.88-11.35 40.31-1.14 4.03-3.33 6.12-7.97 6.51-28.72 2.43-56.89-.39-84.43-8.65-7.74-2.32-14.95-6.42-22.48-9.5-4.42-1.81-5.36-4.75-4.17-9.14 4.05-14.91 7.79-29.91 11.92-44.8 5.11-18.41 10.13-36.86 15.89-55.06 3.69-11.67 8.64-22.94 13.28-35.05 24.67 10.96 50.12 13.5 75.65 15.47-.74 10.94-1.51 21.66-2.13 32.39-.13 2.3-.21 4.85.63 6.89.62 1.51 2.73 3.23 4.25 3.31 1.48.07 3.82-1.51 4.41-2.93.98-2.37.99-5.19 1.17-7.83.72-10.42 1.36-20.85 2.04-31.49h11.46c0 3.13-.13 6.22.02 9.3.55 10.63 1.19 21.26 1.81 31.89.04.66-.06 1.59.33 1.93 1.81 1.63 3.69 4.22 5.69 4.36 3.33.24 4.49-2.55 4.28-5.92-.8-12.46-1.45-24.92-2.14-37.39-.07-1.29 0-2.59 0-4.06 30.4-3.13 60.02-6.27 89.66-9.18 8.77-.86 17.6-1.03 26.39-1.69 3-.23 4.51.63 5.16 3.76 5.35 25.73 10.76 51.45 16.3 77.14zm-4.3-296.09c-1.55-10.22-2.91-20.37-4.66-30.45-1.39-8.01-2.94-16.03-5.09-23.86-.58-2.11-3.44-4.8-5.5-5.02-3.84-.42-4.82 3.21-4.53 6.32.88 9.27 1.87 18.54 3.25 27.75 3.79 25.16 3.82 50.25 1.3 75.6-2.09 21.01-2.38 42.23-2.74 63.36-.41 24.6 3.66 48.77 8.74 72.76.55 2.6.74 5.27 1.15 7.9 1 6.43.97 6.99-5.52 7.64-10.23 1.04-20.55 1.19-30.8 2.13-13.75 1.26-27.48 2.81-41.2 4.41-43.14 5.02-86.24 8.2-129.09-2.31-6.13-1.5-12.58-2.63-18.1-5.47-4.57-2.35-8.1-6.85-11.79-10.68-.63-.66-.07-2.88.45-4.17 2.5-6.17 4.93-12.38 7.82-18.36 10.52-21.77 12.57-45.35 14.87-68.86 1.03-10.59 1.86-21.21 2.31-31.84.71-16.98-5.62-32.67-9.39-48.84-4.15-17.79-8.08-35.62-12.15-53.43-.78-3.4-1.11-7.12-2.81-10-1.15-1.94-4.42-3.74-6.59-3.58-1.54.11-4.09 3.68-4 5.59.33 6.76 1.56 13.49 2.52 20.21.64 4.52 1.4 9.02 2.05 13.14-10.19-5.96-19.94-12.29-30.25-17.5-10.33-5.22-20.9-10.41-34.17-9.55 5.19-9.93 9.93-19.02 14.69-28.1 6.49-12.37 12.83-24.82 19.55-37.06 8.55-15.58 22.65-24.38 38.58-30.86 9.24-3.76 18.38-7.79 27.52-11.67 18.11 24.92 43.52 34.45 73.09 31.97 29.5-2.47 53.39-14.9 64.56-45.2 10.04 2.11 20.2 3.69 30.05 6.43 14.38 4.01 28.66 8.5 42.75 13.42 20.77 7.26 35.47 21.87 44.53 41.4 9.36 20.18 17.1 41.11 25.56 61.71.94 2.28.9 4.06-1.76 5.28-21.15 9.76-42.26 19.59-63.39 29.39-.43.2-.95.22-1.84.4zm94.67 366.37c-1.02 6.62-6.46 9.47-12.8 6.96 6.47-21.41 1.46-41.24-8.65-60.19-4.35-8.15-10.56-14.53-20.81-15.85 1.86-7.27 8.93-10.74 14.68-7.24 3.47 2.12 7.19 4.56 9.46 7.79 14.43 20.55 22.03 43.08 18.13 68.53zm54.76-44.04c-.41-2.88-.27-5.79-1.33-8.16-.95-2.11-3.22-3.63-4.91-5.41-1.21 1.89-2.98 3.65-3.51 5.72-.82 3.18-.38 6.7-1.26 9.86-.82 2.93-2.68 5.57-4.09 8.34-.69-.19-1.38-.38-2.08-.56-.24-3-.43-6.01-.73-9.01-.22-2.15 0-4.65-1.05-6.33-1.21-1.93-3.6-3.12-5.48-4.63-1.17 1.91-3.05 3.72-3.36 5.77-.81 5.4-.86 10.9-1.39 16.35-.13 1.33-.94 2.6-2.05 3.93-4.93-23.16-12.55-44.7-31.18-61.28 1.48-2.15 2.69-4.82 4.68-6.62 3.53-3.2 4.64-6.85 3.28-11.21-4.75-15.21-9.01-30.62-14.59-45.52-5.17-13.81-11.83-27.07-17.77-40.59-4.81-10.93-10.64-21.58-13.93-32.96-2.67-9.22-2.07-19.36-3.25-29.05-.38-3.09-1.06-6.65-2.89-8.98-14.26-18.15-24.25-38.54-32.05-60.08-2.88-7.95-5.11-16.14-7.34-24.31-.33-1.22.56-3.75 1.57-4.23 19.16-9.17 38.42-18.13 58.63-27.59 2.9 12.52 5.99 24.21 8.27 36.05 3.44 17.79 6.06 35.73 9.63 53.49.78 3.88 3.58 7.72 6.35 10.77 16.61 18.33 23.88 40.24 26.22 64.43 2.21 22.84 4.99 45.63 8.04 68.37 1.43 10.69 3.83 21.27 6.36 31.76.81 3.36 3.06 6.57 5.25 9.38 9.01 11.62 17.45 23.55 21.94 37.76 3.35 10.6 1.23 19.43-5.97 24.55zm46.13-1.06c-.16 5.79-4.9 5.67-8.92 7 1.74-30.18-4.38-57.04-27.97-77.78 4.72-5.32 10.49-5.41 15.28.49 16.67 20.51 22.3 44.44 21.61 70.28z"/><path d="m491.42 188.08c-4.31-.35-4.88 2.61-5.51 6.06-.85 4.69-1.99 9.44-3.89 13.78-.86 1.97-3.8 4.06-5.88 4.15-1.55.07-3.9-2.72-4.72-4.71-1.37-3.32-1.58-7.11-2.76-10.54-.42-1.21-2.3-2.7-3.44-2.64-1.18.06-3.16 1.79-3.24 2.9-.47 6.89.27 13.69 4.51 19.48 4.46 6.1 12.57 6.83 18.46 1.98 7.45-6.14 9.04-14.73 10.1-23.15-.25-3.27 1.02-6.92-3.63-7.3z"/><path d="m455.16 228.96c.12-1.75-1.34-3.6-2.09-5.4-1.57 1.14-3.93 1.96-4.58 3.49-2.14 5.04-3.88 10.28-5.39 15.55-2.5 8.77.91 12.72 10.05 11.83 2.3-.22 4.84-.51 6.71-1.67 1.55-.97 2.28-3.27 3.37-4.98-1.79-.74-3.54-1.92-5.39-2.1-2.18-.21-4.44.44-7.26.79.95-3.45 1.69-6.13 2.42-8.82.78-2.89 1.97-5.76 2.16-8.69z"/><path d="m649.39 599.66c-1.87.28-4.19 1.05-5.28 2.46-10.02 12.91-20.49 25.38-33.07 35.92-5.61 4.7-11.46 9.11-17.01 13.89-.99.85-.99 2.84-1.45 4.3 1.63.44 3.48 1.57 4.86 1.16 2.99-.9 5.83-2.42 8.57-3.98 16.56-9.44 29.02-23.2 39.93-38.49 2.37-3.32 3.83-7.29 5.88-11.29-.9-1.53-1.86-4.06-2.44-3.98z"/><path d="m605.78 602.84c2.67-1.15 5.28-3 7.25-5.17 9.93-10.95 19.91-21.88 29.28-33.29 3.82-4.65 6.15-10.52 9.28-16.04-1.23-1.82-2.28-4.24-2.93-4.14-1.74.28-3.71 1.28-4.87 2.62-10.53 12.21-20.88 24.56-31.34 36.83-3.77 4.43-7.85 8.61-11.44 13.18-.98 1.26-.67 3.53-.96 5.34 1.93.28 4.19 1.32 5.71.66z"/><path d="m560.13 216.05c1.39.19 3.64-.89 4.39-2.11 1.99-3.21 3.58-6.73 4.9-10.28.54-1.45-.05-3.31-.12-4.98-1.82.12-4.58-.46-5.3.49-2.92 3.86-5.21 8.2-8.03 12.86 1.85 1.89 2.89 3.85 4.17 4.02z"/><path d="m434.65 1230.04c-8.29 1.76-16.61 3.48-24.73 5.83-16.32 4.71-32.71 8.92-49.77 10.18-3.81 0-7.64-.16-11.43.11-1 .07-2.51 1.37-2.68 2.31-.17.93.79 2.55 1.71 3.1 1.67 1 3.66 1.97 5.54 2.03 7.95.23 16.22 1.53 23.82-.13 19.94-4.37 39.62-9.96 59.3-15.42 2.14-.59 5.22-3.7 5.08-5.4-.32-3.68-4.14-3.17-6.82-2.6z"/></svg>